<mxfile host="app.diagrams.net" modified="2023-05-03T07:08:26.151Z" agent="Mozilla/5.0 (Windows NT 10.0; Win64; x64) AppleWebKit/537.36 (KHTML, like Gecko) Chrome/113.0.0.0 Safari/537.36" version="21.2.4" etag="_-6ygF9CYoeVoowN02yd" type="github">
  <diagram name="Page-1" id="w9FciEQ9ZLE1MSSy06cm">
    <mxGraphModel>
      <root>
        <mxCell id="0" />
        <mxCell id="1" parent="0" />
      </root>
    </mxGraphModel>
  </diagram>
</mxfile>
